<svg width="39" height="38" viewBox="0 0 39 38" fill="none" xmlns="http://www.w3.org/2000/svg">
<path d="M17.8663 35.7708V33.8404C17.8663 32.8164 17.4595 31.8344 16.7354 31.1103C16.0114 30.3863 15.0294 29.9795 14.0054 29.9795H7.24887C6.2249 29.9795 5.24288 30.3863 4.51882 31.1103C3.79477 31.8344 3.388 32.8164 3.388 33.8404V35.7708" stroke="#FF484D" stroke-width="1.70851" stroke-linecap="round" stroke-linejoin="round"/>
<path d="M35.2398 21.6144V19.684C35.2398 18.66 34.833 17.678 34.109 16.9539C33.3849 16.2299 32.4029 15.8231 31.3789 15.8231H24.6224C23.5984 15.8231 22.6164 16.2299 21.8924 16.9539C21.1683 17.678 20.7615 18.66 20.7615 19.684V21.6144" stroke="#FF484D" stroke-width="1.70851" stroke-linecap="round" stroke-linejoin="round"/>
<path d="M10.6273 27.4055C12.7596 27.4055 14.4882 25.6769 14.4882 23.5446C14.4882 21.4123 12.7596 19.6837 10.6273 19.6837C8.49499 19.6837 6.76642 21.4123 6.76642 23.5446C6.76642 25.6769 8.49499 27.4055 10.6273 27.4055Z" stroke="#FF484D" stroke-width="1.70851" stroke-linecap="round" stroke-linejoin="round"/>
<path d="M28.0013 13.249C30.1336 13.249 31.8622 11.5204 31.8622 9.38809C31.8622 7.25579 30.1336 5.52722 28.0013 5.52722C25.869 5.52722 24.1404 7.25579 24.1404 9.38809C24.1404 11.5204 25.869 13.249 28.0013 13.249Z" stroke="#FF484D" stroke-width="1.70851" stroke-linecap="round" stroke-linejoin="round"/>
<path d="M17.866 21.4036C17.3942 21.4036 17.0117 21.786 17.0117 22.2578C17.0117 22.7296 17.3942 23.1121 17.866 23.1121V21.4036ZM38.1356 22.2578L38.8855 22.6669C39.0299 22.4022 39.024 22.081 38.8701 21.8217C38.7162 21.5625 38.4371 21.4036 38.1356 21.4036V22.2578ZM30.4138 36.4143V37.2686C30.7264 37.2686 31.0141 37.0978 31.1638 36.8234L30.4138 36.4143ZM1.13556 35.5601C0.663766 35.5601 0.281302 35.9425 0.281302 36.4143C0.281302 36.8861 0.663766 37.2686 1.13556 37.2686V35.5601ZM17.866 23.1121H38.1356V21.4036H17.866V23.1121ZM37.3856 21.8487L29.6639 36.0053L31.1638 36.8234L38.8855 22.6669L37.3856 21.8487ZM30.4138 35.5601H1.13556V37.2686H30.4138V35.5601Z" fill="#FF484D"/>
<path d="M19.474 6.49268V11.3188L15.9349 9.38833" stroke="#FF484D" stroke-width="1.70851" stroke-linecap="round" stroke-linejoin="round"/>
<path fill-rule="evenodd" clip-rule="evenodd" d="M4.71868 2.61321H17.4913C17.9951 2.61321 18.4036 3.06706 18.4036 3.62691V7.2588L20.1767 8.27201C20.2105 8.08105 20.2283 7.88368 20.2283 7.6817V3.62691C20.2283 1.94736 19.0029 0.585815 17.4913 0.585815H4.71868C3.20708 0.585815 1.98169 1.94736 1.98169 3.62691V7.6817C1.98169 9.36126 3.20708 10.7228 4.71868 10.7228H17.4913C18.0541 10.7228 18.5773 10.534 19.0123 10.2104L17.8672 10.3535L15.9327 8.6954H4.71868C4.21481 8.6954 3.80635 8.24156 3.80635 7.6817V3.62691C3.80635 3.06706 4.21481 2.61321 4.71868 2.61321Z" fill="#FF484D"/>
</svg>
